<?xml version="1.0" encoding="UTF-8"?>
<!DOCTYPE svg PUBLIC "-//W3C//DTD SVG 1.1//EN" "http://www.w3.org/Graphics/SVG/1.1/DTD/svg11.dtd">
<!-- Creator: CorelDRAW Standard 2020 (Versão de avaliação) -->
<svg xmlns="http://www.w3.org/2000/svg" xml:space="preserve" width="499px" height="531px" version="1.1" style="shape-rendering:geometricPrecision; text-rendering:geometricPrecision; image-rendering:optimizeQuality; fill-rule:evenodd; clip-rule:evenodd"
viewBox="0 0 499 531.479"
 xmlns:xlink="http://www.w3.org/1999/xlink"
 xmlns:xodm="http://www.corel.com/coreldraw/odm/2003">
 <defs>
  <style type="text/css">
   <![CDATA[
    .fil13 {fill:#1698F9}
    .fil15 {fill:#226CBA}
    .fil3 {fill:#22A7F0}
    .fil21 {fill:#294F91}
    .fil11 {fill:#2A1A3B}
    .fil1 {fill:#371A45}
    .fil16 {fill:#4F80BB}
    .fil14 {fill:#5CB7FB}
    .fil12 {fill:#6B6577}
    .fil19 {fill:#6E8EBC}
    .fil9 {fill:#857B8C}
    .fil18 {fill:#8BCCFC}
    .fil8 {fill:#8C7B94}
    .fil10 {fill:#9B8DA2}
    .fil4 {fill:#AFAFB2}
    .fil2 {fill:#B9AFBE}
    .fil24 {fill:#C3085D}
    .fil6 {fill:#C3BAC7}
    .fil20 {fill:#DB2C2C}
    .fil7 {fill:#E7E7E8}
    .fil22 {fill:#FF0068}
    .fil17 {fill:#FF66AC}
    .fil23 {fill:#FF80B4}
    .fil5 {fill:#FFE9DE}
    .fil0 {fill:white}
   ]]>
  </style>
 </defs>
 <g id="Camada_x0020_1">
  <metadata id="CorelCorpID_0Corel-Layer"/>
  <g id="_512160440">
   <path class="fil0" d="M297.95 452.379l-125.812 0c-21.578,0 -39.232,-17.654 -39.232,-39.231l0 -111.158c0,-21.578 17.654,-39.231 39.232,-39.231l125.812 0c21.577,0 39.231,17.653 39.231,39.231l0 111.158c0,21.577 -17.654,39.231 -39.231,39.231z"/>
   <path class="fil1" d="M297.95 256.557l-125.812 0c-6.111,0 -12.052,1.208 -17.657,3.59 -5.404,2.295 -10.261,5.576 -14.436,9.75 -4.174,4.176 -7.456,9.032 -9.75,14.436 -2.383,5.605 -3.59,11.546 -3.59,17.657l0.001 111.158c0,6.111 1.206,12.051 3.589,17.658 2.294,5.403 5.575,10.259 9.75,14.435 4.175,4.174 9.032,7.455 14.436,9.751 5.605,2.381 11.546,3.588 17.657,3.588l125.812 0c6.11,0 12.051,-1.207 17.657,-3.588 5.404,-2.296 10.259,-5.577 14.433,-9.751 4.177,-4.176 7.458,-9.032 9.752,-14.435 2.381,-5.607 3.59,-11.547 3.59,-17.658l0 -111.158c0,-6.111 -1.209,-12.052 -3.59,-17.657 -2.294,-5.404 -5.575,-10.26 -9.752,-14.436 -4.174,-4.174 -9.03,-7.455 -14.433,-9.75 -5.606,-2.382 -11.547,-3.59 -17.657,-3.59zm0 6.202c21.577,0 39.231,17.653 39.231,39.231l0 111.158c0,21.577 -17.654,39.231 -39.231,39.231l-125.812 0c-21.578,0 -39.232,-17.654 -39.232,-39.231l0 -111.158c0,-21.578 17.654,-39.231 39.232,-39.231l125.812 0z"/>
   <path class="fil0" d="M334.369 383.647c-19.588,2.296 -39.113,2.86 -39.113,2.86 0,0 -9.944,-49.58 -12.699,-88.459 -2.03,-28.806 -0.121,-51.731 12.699,-44.252 5.898,3.44 12.691,9.919 19.775,18.137 26.565,30.838 57.088,86.21 58.764,97.701 1.079,7.389 -19.202,11.628 -39.426,14.013z"/>
   <path class="fil1" d="M290.815 255.59c-0.622,0 -0.948,0.234 -1.125,0.362 -2.103,1.5 -8.409,10.846 -1.274,68.048 3.23,25.906 7.921,51.091 9.479,59.188 5.499,-0.222 18.551,-0.858 32.147,-2.303 31.565,-3.359 38.617,-8.062 40.183,-9.927 0.435,-0.518 0.399,-0.757 0.384,-0.858 -0.916,-6.263 -12.823,-30.256 -29.089,-55.986 -18.839,-29.799 -36.293,-50.769 -47.885,-57.532 -1.316,-0.767 -2.209,-0.992 -2.82,-0.992zm1.819 134.219l-0.535 -2.666c-0.06,-0.303 -6.141,-30.768 -10.075,-62.314 -2.321,-18.598 -3.456,-33.952 -3.374,-45.638 0.111,-15.961 2.429,-25.011 7.292,-28.485 2.136,-1.526 5.767,-2.711 10.941,0.308 17.055,9.95 38.7,41.646 50.084,59.656 7.594,12.012 14.864,24.637 20.471,35.551 3.949,7.691 8.813,17.914 9.55,22.946 0.213,1.461 0.071,3.678 -1.825,5.935 -2.741,3.265 -8.435,5.818 -17.917,8.036 -6.954,1.626 -15.889,3.027 -26.559,4.16 -18.063,1.919 -35.165,2.427 -35.335,2.433l-2.718 0.078z"/>
   <path class="fil0" d="M195.581 251.965l-3.965 29.992 -2.255 17.051 -4.811 36.406c0,0 -8.791,5.977 -23.417,10.715 -5.462,1.773 -11.755,3.361 -18.702,4.401 -11.353,1.708 -24.478,1.924 -38.701,-0.984 -36.59,-7.494 -58.547,-34.672 -68.055,-48.339 -18.372,-26.373 -21.2,-33.503 -16.092,-44.607 3.901,-8.51 10.58,-10.065 10.58,-10.065 0,0 -0.33,-6.8 5.052,-9.218 16.132,-7.243 36.913,12.103 36.913,12.103 0,-0.001 0.774,-20.806 11.909,-16.003 7.672,3.312 9.411,25.963 9.411,25.963 0.001,0 10.3,13.229 26.656,14.987 8.549,0.918 20.378,-1.563 32.126,-5.164 0.137,-0.041 0.275,-0.082 0.411,-0.13 6.262,-1.934 12.483,-4.174 18.179,-6.391 2.554,-0.99 5.003,-1.98 7.301,-2.932 10.265,-4.254 17.46,-7.785 17.46,-7.785z"/>
   <path class="fil2" d="M99.692 345.296c-23.539,-6.158 -44.678,-21.952 -61.372,-45.928 -11.962,-17.179 -16.77,-25.597 -17.647,-31.737 1.976,3.655 4.506,7.697 7.46,12.372 2.259,3.575 6.449,12.237 22.503,25.993 8.785,7.528 31.612,22.352 61.465,23.656 -1.286,3.702 -2.764,6.903 -4.422,9.578 -2.461,0.4 -4.721,1.653 -6.377,3.57 -0.657,0.762 -1.196,1.603 -1.61,2.496zm42.176 -6.206l-29.005 0c0.882,-1.66 1.704,-3.462 2.468,-5.4 0.494,-1.257 0.966,-2.573 1.412,-3.946 8.138,-0.037 16.755,-1.107 25.706,-3.607 1.231,-0.344 2.346,-0.757 3.359,-1.228 -0.143,0.412 -0.287,0.828 -0.427,1.242 -0.455,1.352 -0.889,2.712 -1.299,4.078 -0.4,1.368 -0.802,2.737 -1.119,4.129 -0.333,1.387 -0.647,2.778 -0.968,4.168 -0.042,0.188 -0.085,0.376 -0.127,0.564z"/>
   <path class="fil1" d="M30.91 249.667c-0.417,0.114 -5.338,1.588 -8.404,8.271 -4.129,9 -3.115,14.246 15.814,41.43 17.794,25.555 40.636,41.814 66.057,47.019 23.161,4.743 43.279,0.753 56.078,-3.428 10.85,-3.545 18.334,-7.774 21.1,-9.465l10.056 -76.11c-5.255,2.397 -13.847,6.165 -23.492,9.779 -21.466,8.044 -37.735,11.545 -48.355,10.407 -17.517,-1.876 -28.403,-15.625 -28.856,-16.209 -0.39,-0.5 -0.622,-1.102 -0.672,-1.733 -0.003,-0.053 -0.441,-5.554 -1.771,-11.332 -2.247,-9.743 -4.931,-11.583 -5.7,-11.916 -1.926,-0.831 -2.757,-0.309 -3.07,-0.11 -2.707,1.704 -4.177,8.786 -4.354,13.27 -0.049,1.259 -0.827,2.376 -1.993,2.856 -1.164,0.478 -2.501,0.237 -3.422,-0.62 -0.192,-0.177 -19.411,-17.797 -33.391,-11.516 -3.221,1.447 -3.162,5.813 -3.154,6.128 0.095,1.591 -0.914,2.95 -2.471,3.28zm94.899 105.334c-7.64,0 -15.248,-0.768 -22.726,-2.298 -16.447,-3.369 -31.792,-10.953 -45.605,-22.542 -8.891,-7.461 -17.117,-16.582 -24.449,-27.111 -8.947,-12.85 -14.635,-21.677 -17.228,-28.768 -2.484,-6.792 -2.239,-12.307 0.847,-19.033 3.038,-6.622 7.632,-9.668 10.409,-10.974 0.454,-3.405 2.219,-7.822 6.837,-9.895 13.118,-5.895 28.254,3.226 35.746,8.838 0.075,-0.381 0.154,-0.771 0.243,-1.166 1.242,-5.571 3.386,-9.351 6.371,-11.235 1.834,-1.157 4.893,-2.158 9.066,-0.356 4.232,1.828 7.32,7.213 9.443,16.461 1.086,4.738 1.609,9.184 1.806,11.155 2.278,2.578 11.181,11.722 23.883,13.082 23.182,2.484 73.205,-21.843 73.708,-22.089 1.067,-0.524 2.334,-0.417 3.299,0.278 0.964,0.693 1.469,1.86 1.313,3.038l-11.023 83.445c-0.121,0.91 -0.625,1.725 -1.383,2.243 -0.368,0.249 -9.209,6.21 -23.909,11.011 -8.61,2.813 -17.469,4.647 -26.328,5.45 -3.44,0.31 -6.884,0.466 -10.32,0.466z"/>
   <path class="fil1" d="M74.778 249.416c0.076,0.905 -0.06,1.729 -0.241,2.445 -0.09,0.368 -0.202,0.687 -0.315,1.015 -0.115,0.307 -0.241,0.618 -0.365,0.898 -0.51,1.145 -1.058,2.091 -1.581,3.012 -0.524,0.915 -1.029,1.785 -1.498,2.656l-0.344 0.654c-0.108,0.22 -0.223,0.438 -0.328,0.659l-0.304 0.666 -0.291 0.673 -0.264 0.686 -0.244 0.694c-0.084,0.232 -0.146,0.47 -0.22,0.705 -0.076,0.236 -0.137,0.477 -0.2,0.718 -0.245,0.962 -0.456,1.956 -0.578,2.977 -0.133,1.02 -0.22,2.067 -0.243,3.132 -0.027,0.535 -0.016,1.072 -0.021,1.616 -0.009,0.273 0.014,0.542 0.016,0.816 0.005,0.275 0.014,0.55 0.012,0.828l0.001 0.021c0,0.214 -0.175,0.389 -0.389,0.387 -0.151,-0.001 -0.28,-0.085 -0.346,-0.209 -0.515,-1.004 -0.983,-2.045 -1.344,-3.135 -0.381,-1.084 -0.654,-2.213 -0.854,-3.369 -0.395,-2.315 -0.385,-4.763 0.048,-7.155l0.179 -0.893c0.069,-0.294 0.145,-0.586 0.218,-0.882 0.078,-0.293 0.164,-0.579 0.246,-0.87 0.085,-0.291 0.186,-0.57 0.28,-0.857 0.388,-1.133 0.868,-2.21 1.364,-3.22 0.491,-1.008 1.017,-1.959 1.44,-2.785 0.449,-0.838 0.702,-1.514 0.851,-1.883l0.314 -0.768c0.542,-1.33 2.06,-1.968 3.391,-1.426 0.937,0.381 1.53,1.252 1.61,2.194z"/>
   <path class="fil1" d="M100.188 351.761c-0.813,0 -1.596,-0.451 -1.984,-1.229 -0.544,-1.096 -0.099,-2.424 0.997,-2.97 8.935,-4.445 15.039,-18.318 17.65,-40.117 2.026,-16.897 1.185,-32.608 1.176,-32.766 -0.069,-1.221 0.867,-2.266 2.088,-2.335 1.215,-0.068 2.266,0.866 2.335,2.089 0.009,0.159 0.87,16.205 -1.192,33.48 -1.223,10.221 -3.216,18.894 -5.927,25.777 -3.508,8.907 -8.272,14.91 -14.158,17.837 -0.317,0.158 -0.654,0.234 -0.985,0.234z"/>
   <path class="fil0" d="M341.314 439.906l-212.766 0c0,0 1.299,-36.719 13.883,-89.376 5.046,-21.121 11.91,-44.802 21.233,-69.709 2.241,-5.979 4.625,-12.029 7.156,-18.139 7.074,-17.042 15.325,-34.495 24.947,-51.946l78.33 0c7.953,14.431 14.971,28.854 21.159,43.06 4.005,9.186 7.663,18.275 10.999,27.202 14.56,38.92 23.109,74.842 28.114,102.649 6.171,34.302 6.945,56.259 6.945,56.259z"/>
   <path class="fil1" d="M312.108 308.382c4.112,4.591 5.989,9.935 7.727,15.301 0.87,2.685 1.731,5.374 2.551,8.075 0.41,1.35 0.833,2.699 1.2,4.061 0.378,1.359 0.745,2.723 1.113,4.086l1.077 4.094c0.354,1.366 0.712,2.73 1.045,4.102l1.959 8.238c0.316,1.375 0.667,2.741 0.979,4.118l0.932 4.13 0.959 4.121c0.324,1.375 0.655,2.744 0.956,4.122l1.846 8.262c0.317,1.375 0.59,2.76 0.882,4.141l0.865 4.142 0.434 2.072 0.215 1.037 0.201 1.038 0.812 4.155c0.27,1.385 0.547,2.769 0.84,4.15 0.28,1.385 0.561,2.769 0.856,4.149 1.233,5.515 2.131,11.101 2.507,16.762 0.049,0.707 0.102,1.412 0.138,2.122l0.09 2.128c0.046,1.422 0.085,2.841 0.066,4.27 -0.009,1.426 -0.043,2.853 -0.133,4.288 -0.083,1.432 -0.204,2.865 -0.418,4.31 -0.043,0.279 -0.301,0.472 -0.58,0.429 -0.189,-0.028 -0.338,-0.158 -0.402,-0.324l-0.002 -0.005c-1.016,-2.702 -1.848,-5.417 -2.633,-8.131 -0.385,-1.357 -0.758,-2.717 -1.118,-4.076l-0.517 -2.044c-0.162,-0.682 -0.331,-1.362 -0.501,-2.044 -0.659,-2.726 -1.24,-5.461 -1.763,-8.207 -0.253,-1.374 -0.48,-2.753 -0.689,-4.135 -0.225,-1.38 -0.434,-2.762 -0.647,-4.144 -0.209,-1.383 -0.43,-2.764 -0.653,-4.145 -0.238,-1.379 -0.502,-2.752 -0.77,-4.125l-0.802 -4.117 -0.2 -1.032 -0.214 -1.026 -0.429 -2.055 -0.858 -4.106c-0.29,-1.37 -0.562,-2.742 -0.875,-4.106l-1.832 -8.192c-0.294,-1.368 -0.636,-2.725 -0.962,-4.086l-1.001 -4.077 -1.028 -4.069c-0.166,-0.68 -0.356,-1.354 -0.535,-2.029l-0.551 -2.027 -2.212 -8.097c-0.768,-2.691 -1.549,-5.376 -2.295,-8.073 -0.372,-1.349 -0.744,-2.695 -1.106,-4.047l-0.269 -1.013 -0.287 -1.01 -0.562 -2.022c-0.749,-2.694 -1.46,-5.401 -2.16,-8.112l-0.513 -2.036c-0.172,-0.679 -0.362,-1.352 -0.543,-2.029 -0.359,-1.353 -0.659,-2.724 -0.887,-4.119 -0.225,-1.396 -0.383,-2.813 -0.443,-4.263 -0.032,-0.724 -0.035,-1.458 -0.009,-2.202 0.029,-0.746 0.076,-1.497 0.207,-2.276l0.004 -0.031c0.05,-0.293 0.329,-0.492 0.624,-0.443 0.126,0.022 0.233,0.083 0.314,0.172z"/>
   <path class="fil1" d="M128.052 439.888c-0.329,-0.73 -0.553,-1.454 -0.764,-2.182 -0.212,-0.73 -0.37,-1.451 -0.508,-2.178 -0.286,-1.453 -0.438,-2.897 -0.523,-4.337 -0.039,-0.721 -0.066,-1.442 -0.064,-2.158 0.004,-0.717 0.03,-1.431 0.066,-2.147l0.12 -2.143c0.037,-0.713 0.082,-1.427 0.14,-2.14 0.222,-2.848 0.436,-5.701 0.771,-8.536 0.151,-1.421 0.317,-2.838 0.485,-4.257 0.081,-0.709 0.19,-1.414 0.286,-2.123l0.3 -2.119 0.627 -4.236c0.218,-1.41 0.474,-2.813 0.712,-4.22 0.491,-2.812 0.949,-5.629 1.507,-8.426 0.543,-2.8 1.039,-5.608 1.595,-8.405 0.563,-2.795 1.112,-5.592 1.653,-8.391 0.138,-0.7 0.264,-1.402 0.413,-2.098l0.447 -2.091 0.891 -4.183 0.891 -4.181c0.076,-0.349 0.147,-0.698 0.227,-1.046l0.244 -1.039 0.487 -2.082 1.954 -8.325c0.158,-0.695 0.335,-1.386 0.511,-2.077 0.17,-0.691 0.343,-1.382 0.506,-2.076 0.328,-1.388 0.656,-2.775 0.969,-4.166 0.321,-1.39 0.635,-2.781 0.968,-4.168 0.317,-1.392 0.719,-2.761 1.119,-4.129 0.41,-1.366 0.844,-2.726 1.299,-4.078 0.458,-1.352 0.943,-2.697 1.434,-4.038l0.758 -2.004c0.127,-0.334 0.267,-0.664 0.407,-0.993 0.14,-0.33 0.275,-0.661 0.42,-0.989 0.571,-1.316 1.152,-2.628 1.767,-3.928 0.609,-1.302 1.245,-2.594 1.913,-3.873 0.67,-1.281 1.36,-2.552 2.13,-3.794 0.147,-0.239 0.461,-0.313 0.7,-0.166 0.163,0.101 0.249,0.28 0.241,0.461l0 0.007c-0.319,5.846 -1.416,11.41 -2.497,16.973 -0.276,1.387 -0.562,2.773 -0.872,4.149 -0.313,1.377 -0.65,2.746 -1.01,4.109 -0.747,2.717 -1.497,5.436 -2.28,8.144 -0.393,1.356 -0.772,2.713 -1.151,4.072 -0.192,0.68 -0.37,1.361 -0.553,2.043 -0.179,0.682 -0.363,1.362 -0.517,2.049l-1.933 8.239 -0.483 2.059 -0.242 1.029c-0.078,0.344 -0.147,0.69 -0.223,1.033l-0.881 4.139 -0.882 4.137 -0.441 2.067c-0.149,0.69 -0.271,1.384 -0.41,2.077 -2.264,11.053 -3.785,22.24 -5.265,33.402l-0.574 4.185c-0.179,1.396 -0.358,2.792 -0.553,4.186l-1.141 8.368c-0.205,1.393 -0.374,2.789 -0.56,4.184 -0.097,0.698 -0.202,1.394 -0.331,2.088 -0.128,0.695 -0.252,1.388 -0.408,2.08 -0.31,1.386 -0.694,2.767 -1.151,4.146 -0.227,0.69 -0.498,1.38 -0.776,2.066 -0.285,0.689 -0.595,1.38 -0.978,2.066l-0.004 0.007c-0.148,0.266 -0.483,0.361 -0.749,0.212 -0.108,-0.06 -0.188,-0.15 -0.234,-0.255z"/>
   <path class="fil0" d="M189.83 393.579c-12.135,4.911 -30.915,3.884 -43.719,2.335 -7.678,-0.93 -13.068,-8.015 -11.938,-15.667 1.034,-6.983 7.179,-12.06 14.229,-11.73 11.977,0.561 29.938,0.823 41.315,-1.7l0.113 26.762z"/>
   <path class="fil1" d="M147.748 371.725c-5.198,0 -9.617,3.786 -10.385,8.993 -0.42,2.838 0.306,5.659 2.046,7.939 1.734,2.273 4.252,3.713 7.09,4.057 18.307,2.215 33.266,1.462 42.121,-2.124 2.629,-1.065 3.384,-5.325 3.588,-7.108 0.707,-6.234 -1.191,-11.998 -2.378,-13.392 -11.539,2.425 -28.923,2.239 -41.579,1.647 -0.168,-0.009 -0.336,-0.012 -0.503,-0.012zm17.955 28.691c-7.02,0 -14.001,-0.579 -19.978,-1.302 -4.578,-0.555 -8.642,-2.879 -11.44,-6.546 -2.805,-3.675 -3.976,-8.218 -3.299,-12.792 0.615,-4.17 2.744,-7.943 5.994,-10.623 3.254,-2.683 7.363,-4.054 11.573,-3.856 17.641,0.827 32.011,0.25 40.466,-1.626 1.697,-0.376 5.913,-0.39 8.403,7.613 2.528,8.13 2.248,21.788 -6.384,25.282 -7.117,2.881 -16.259,3.85 -25.335,3.85z"/>
   <path class="fil0" d="M282.647 393.579c12.134,4.911 30.915,3.884 43.717,2.335 7.681,-0.93 13.07,-8.015 11.94,-15.667 -1.033,-6.983 -7.179,-12.06 -14.23,-11.73 -11.976,0.561 -29.939,0.823 -41.313,-1.7l-0.114 26.762z"/>
   <path class="fil1" d="M282.647 370.09c-1.189,1.394 -3.087,7.158 -2.378,13.392 0.203,1.783 0.957,6.043 3.588,7.108 8.853,3.586 23.812,4.339 42.121,2.124 2.837,-0.344 5.354,-1.784 7.089,-4.057 1.74,-2.28 2.468,-5.101 2.048,-7.939 -0.796,-5.374 -5.475,-9.232 -10.891,-8.981 -12.653,0.592 -30.038,0.778 -41.577,-1.647zm24.126 30.326c-9.077,0 -18.218,-0.969 -25.336,-3.85 -8.63,-3.494 -8.91,-17.152 -6.382,-25.282 2.489,-8.003 6.706,-7.991 8.404,-7.613 8.454,1.876 22.825,2.453 40.464,1.626 4.213,-0.197 8.32,1.173 11.573,3.856 3.251,2.68 5.379,6.454 5.995,10.623 0.677,4.574 -0.494,9.117 -3.299,12.792 -2.799,3.667 -6.861,5.991 -11.44,6.546 -5.976,0.723 -12.96,1.302 -19.979,1.302z"/>
   <path class="fil0" d="M287.337 357.973l0 42.886c0,7.957 -6.513,14.47 -14.47,14.47l-78.982 0c-7.946,0 -14.458,-6.513 -14.458,-14.47l0 -42.886c0,-7.957 6.512,-14.459 14.458,-14.459l78.982 0c4.684,0 8.866,2.257 11.518,5.733 1.85,2.427 2.952,5.453 2.952,8.726z"/>
   <path class="fil1" d="M193.89 346.735c-6.198,0 -11.241,5.041 -11.241,11.238l0 42.891c0,6.198 5.043,11.24 11.24,11.24l78.984 0c6.197,0 11.238,-5.042 11.238,-11.24l0 -42.891c0,-6.197 -5.041,-11.238 -11.238,-11.238l-78.983 0zm78.983 71.814l-78.983 0c-9.753,0 -17.686,-7.933 -17.686,-17.685l0 -42.891c0,-9.752 7.933,-17.686 17.685,-17.686l78.984 0c9.751,0 17.685,7.934 17.685,17.686l0 42.891c0,9.752 -7.934,17.686 -17.685,17.685z"/>
   <path class="fil3" d="M273.833 379.42c0,6.887 -5.583,12.47 -12.472,12.47 -6.888,0 -12.472,-5.582 -12.472,-12.47 0,-6.889 5.584,-12.474 12.472,-12.474 6.889,0 12.472,5.585 12.472,12.474z"/>
   <path class="fil1" d="M261.361 369.365c-5.545,0 -10.056,4.509 -10.056,10.055 0,5.543 4.511,10.054 10.056,10.054 5.544,0 10.055,-4.511 10.055,-10.054 0,-5.546 -4.511,-10.055 -10.055,-10.055zm0 24.944c-8.21,0 -14.889,-6.679 -14.889,-14.889 0,-8.211 6.679,-14.89 14.889,-14.89 8.211,0 14.89,6.679 14.89,14.89 0,8.21 -6.679,14.889 -14.89,14.889z"/>
   <path class="fil1" d="M226.016 417.743c-1.334,0 -2.417,-1.08 -2.417,-2.416l0 -29.375 -15.797 -11.892 0 -30.55c0,-1.334 1.083,-2.417 2.419,-2.417 1.334,0 2.416,1.083 2.416,2.417l0.001 28.139 15.796 11.889 0 31.789c0,1.336 -1.083,2.416 -2.418,2.416z"/>
   <path class="fil0" d="M234.929 438.418c13.972,0 27.407,-5.184 37.901,-14.41 14.535,-12.778 39.004,-28.016 66.012,-18.241 10.838,3.92 18.222,11.11 23.261,19.069 12.975,-30.066 40.197,-31.87 51.977,-14.827 0.001,-0.001 -19.802,94.482 -26.257,96.585 -9.246,3.011 -31.464,-0.156 -31.464,-0.156 0,0 -77.293,-10.464 -121.43,-10.464 -44.139,0 -121.432,10.464 -121.432,10.464 0,0 -22.217,3.167 -31.462,0.156 -6.455,-2.103 -26.259,-96.585 -26.259,-96.585 11.78,-17.043 39.003,-15.239 51.979,14.827 5.037,-7.959 12.424,-15.149 23.259,-19.069 27.008,-9.775 51.479,5.464 66.015,18.241 10.492,9.226 23.927,14.41 37.9,14.41z"/>
   <path class="fil2" d="M376.077 504.666c-5.979,0 -12.572,-0.593 -16.831,-1.102 0.143,-0.858 0.218,-1.737 0.218,-2.633 0,-4.955 -3.443,-9.123 -8.063,-10.235l3.402 -22.944c1.013,0.267 1.553,0.413 1.553,0.413 0,0 7.211,1.027 15.125,1.357 -0.381,3.322 -0.636,6.564 -0.733,9.669 -0.018,0 -0.036,0 -0.052,0 -1.359,0 -2.517,1.038 -2.641,2.418 -0.133,1.461 0.946,2.753 2.407,2.886l0.278 0.025c0.219,6.764 1.37,12.556 3.815,16.546l0 0c0.006,0.009 0.013,0.019 0.018,0.028 0,0.002 0.002,0.004 0.002,0.005 0.005,0.007 0.01,0.015 0.016,0.023 0.002,0.004 0.003,0.007 0.007,0.011 0.003,0.007 0.007,0.012 0.01,0.019 0.004,0.006 0.008,0.011 0.009,0.015 0.004,0.005 0.007,0.009 0.009,0.014 0.004,0.007 0.009,0.014 0.013,0.021 0.003,0.002 0.003,0.005 0.007,0.009 0.005,0.009 0.01,0.018 0.016,0.027 0,0 0,0 0.001,0.001 0.861,1.368 1.88,2.515 3.072,3.411 -0.547,0.011 -1.1,0.016 -1.658,0.016zm-282.295 0c-0.56,0 -1.113,-0.005 -1.659,-0.016 1.299,-0.977 2.392,-2.252 3.301,-3.786 0.002,-0.002 0.002,-0.004 0.004,-0.006 0.003,-0.007 0.009,-0.016 0.014,-0.024 0.002,-0.002 0.003,-0.007 0.005,-0.009 0.004,-0.006 0.009,-0.014 0.011,-0.02 0.003,-0.005 0.007,-0.01 0.01,-0.016 0.004,-0.005 0.004,-0.007 0.008,-0.012 0.005,-0.007 0.008,-0.014 0.012,-0.023 0.002,-0.002 0.002,-0.002 0.003,-0.005 0.006,-0.009 0.011,-0.018 0.016,-0.029l0.002 -0.002c2.303,-3.973 3.396,-9.627 3.609,-16.198l0.278 -0.025c1.462,-0.133 2.539,-1.425 2.408,-2.886 -0.124,-1.382 -1.283,-2.418 -2.645,-2.418 -0.016,0 -0.032,0 -0.048,0 -0.099,-3.105 -0.353,-6.347 -0.734,-9.669 7.913,-0.33 15.119,-1.357 15.119,-1.357 0,0 0.891,-0.241 2.537,-0.672l3.439 23.203c-4.619,1.112 -8.062,5.28 -8.062,10.235 0,0.854 0.068,1.692 0.197,2.509 -4.174,0.532 -11.359,1.226 -17.825,1.226z"/>
   <path class="fil1" d="M83.736 503.92l0 0zm10.214 7.186c-4.847,0 -9.584,-0.363 -12.914,-1.447 -2.271,-0.741 -4.182,-3.258 -7.766,-14.424 -2.097,-6.536 -4.615,-15.635 -7.48,-27.051 -5.159,-20.548 -10.188,-43.595 -12.111,-52.549 -1.006,-4.688 0.53,-9.535 4.011,-12.651 6.683,-5.984 15.639,-8.287 24.574,-6.32 5.63,1.238 11.108,4.177 15.842,8.5 3.92,3.581 7.328,8.053 10.17,13.34 5.769,-7.359 13.028,-12.652 21.644,-15.768 9.76,-3.534 19.972,-4.233 30.354,-2.086 8.382,1.737 16.906,5.336 25.332,10.701 1.501,0.955 1.944,2.948 0.987,4.449 -0.955,1.502 -2.948,1.943 -4.449,0.988 -17.343,-11.041 -34.176,-13.728 -50.033,-7.99 -8.942,3.234 -16.22,9.209 -21.633,17.761 -0.639,1.009 -1.788,1.583 -2.976,1.489 -1.191,-0.094 -2.232,-0.838 -2.707,-1.937 -5.422,-12.561 -14.139,-21.002 -23.917,-23.152 -6.885,-1.516 -13.77,0.244 -18.888,4.827 -1.761,1.575 -2.53,4.065 -2.008,6.497 1.815,8.45 6.57,30.258 11.522,50.181 2.723,10.951 5.136,19.859 7.174,26.478 2.852,9.266 4.342,11.986 4.872,12.744 7.283,2.04 23.659,0.392 29.494,-0.439l0.021 -0.002c0.776,-0.105 78.016,-10.494 121.864,-10.494 43.847,0 121.088,10.389 121.863,10.494l0.023 0.004c5.833,0.828 22.21,2.477 29.492,0.437 0.521,-0.744 1.968,-3.384 4.727,-12.274 1.99,-6.411 4.344,-15.048 7.001,-25.674 4.739,-18.951 9.279,-39.567 11.565,-50.168 0.747,-3.475 -0.555,-7.036 -3.317,-9.073 -5.276,-3.891 -11.812,-5.052 -18.406,-3.267 -9.445,2.553 -17.548,10.68 -22.815,22.881 -0.473,1.099 -1.515,1.843 -2.707,1.937 -1.191,0.094 -2.337,-0.48 -2.975,-1.489 -5.412,-8.552 -12.693,-14.527 -21.634,-17.761 -15.993,-5.788 -32.972,-3.006 -50.464,8.267 -1.497,0.964 -3.49,0.533 -4.456,-0.964 -0.964,-1.495 -0.533,-3.49 0.964,-4.454 8.478,-5.464 17.056,-9.142 25.497,-10.933 10.485,-2.226 20.798,-1.545 30.652,2.023 8.616,3.115 15.875,8.409 21.643,15.769 6.055,-11.253 14.655,-18.808 24.613,-21.5 8.405,-2.273 17.122,-0.706 23.913,4.301 4.802,3.54 7.075,9.672 5.792,15.62 -2.42,11.233 -7.218,32.994 -12.152,52.532 -2.799,11.078 -5.257,19.903 -7.307,26.232 -3.497,10.795 -5.376,13.236 -7.62,13.968 -9.801,3.193 -31.781,0.131 -32.903,-0.027 -1.211,-0.165 -77.704,-10.435 -120.989,-10.435 -43.292,0 -119.779,10.27 -120.99,10.435 -0.739,0.104 -10.572,1.474 -19.989,1.474z"/>
   <path class="fil4" d="M382.082 506.594l5.741 0c6.74,0 12.851,-3.953 15.595,-10.108 8.593,-19.243 24.26,-61.523 9.585,-87.327 -0.426,-0.753 -0.882,-1.477 -1.368,-2.172 0,0 -14.088,-12.814 -24.21,5.316 -9.456,16.932 -29.299,89.346 -5.343,94.291z"/>
   <path class="fil0" d="M382.241 424.37c1.846,-5.133 3.65,-9.325 5.184,-12.067 -1.529,2.739 -3.333,6.933 -5.177,12.056 -0.002,0.004 -0.004,0.007 -0.007,0.011z"/>
   <path class="fil5" d="M416.862 418.452c-0.241,-0.838 -0.502,-1.664 -0.787,-2.48 0,0 0,-0.002 0,-0.002 0.286,0.817 0.546,1.644 0.787,2.482z"/>
   <path class="fil6" d="M416.075 415.972c-0.826,-2.371 -1.842,-4.649 -3.072,-6.813 1.232,2.162 2.248,4.441 3.072,6.811 0,0 0,0.002 0,0.002z"/>
   <path class="fil7" d="M418.659 427.961c-1.086,-2.759 -2.478,-5.393 -4.216,-7.877 -0.52,-0.753 -1.086,-1.476 -1.679,-2.172 0,0 -5.943,-4.396 -13.367,-4.396 -5.252,0 -11.248,2.201 -16.403,9.711 -0.243,0.351 -0.495,0.73 -0.746,1.132 1.844,-5.124 3.648,-9.317 5.177,-12.056l0 0c4.194,-7.512 9.067,-9.711 13.339,-9.711 6.039,-0.001 10.871,4.395 10.871,4.395 0.486,0.695 0.941,1.419 1.368,2.172l0.001 0c1.229,2.163 2.245,4.442 3.071,6.813 0.286,0.816 0.546,1.642 0.787,2.481 0.874,3.052 1.456,6.237 1.797,9.508z"/>
   <path class="fil1" d="M418.581 429.896c-0.146,0 -0.293,-0.013 -0.44,-0.037l-35.214 -5.879c-1.45,-0.241 -2.426,-1.61 -2.185,-3.058 0.243,-1.45 1.612,-2.426 3.06,-2.184l35.215 5.878c1.447,0.243 2.423,1.612 2.182,3.06 -0.215,1.299 -1.343,2.22 -2.618,2.22z"/>
   <path class="fil1" d="M418.357 448.922c-0.118,0 -0.237,-0.009 -0.357,-0.025l-41.195 -5.538c-1.454,-0.195 -2.475,-1.533 -2.28,-2.987 0.195,-1.455 1.533,-2.477 2.989,-2.28l41.194 5.538c1.455,0.195 2.475,1.533 2.28,2.987 -0.18,1.336 -1.321,2.305 -2.631,2.305z"/>
   <path class="fil1" d="M414.722 467.557c-0.107,0 -0.217,-0.007 -0.326,-0.019l-41.817 -5.119c-1.457,-0.178 -2.494,-1.504 -2.315,-2.96 0.179,-1.458 1.502,-2.497 2.96,-2.316l41.818 5.119c1.457,0.179 2.493,1.504 2.315,2.96 -0.165,1.347 -1.312,2.335 -2.635,2.335z"/>
   <path class="fil1" d="M408.09 487.879c-0.079,0 -0.161,-0.003 -0.24,-0.011l-37.388 -3.373c-1.461,-0.133 -2.54,-1.425 -2.407,-2.886 0.131,-1.462 1.424,-2.541 2.884,-2.408l37.387 3.373c1.462,0.133 2.541,1.425 2.408,2.886 -0.124,1.38 -1.283,2.419 -2.644,2.419z"/>
   <path class="fil8" d="M374.663 501.239c-0.001,-0.001 -0.001,-0.001 -0.001,-0.001l0.001 0.001zm-0.017 -0.028c-0.004,-0.004 -0.004,-0.007 -0.007,-0.009 0.003,0.004 0.003,0.004 0.007,0.009zm-0.02 -0.03c-0.002,-0.005 -0.005,-0.009 -0.009,-0.014 0.004,0.005 0.007,0.01 0.009,0.014zm-0.018 -0.029c-0.003,-0.007 -0.007,-0.012 -0.01,-0.019 0.003,0.007 0.007,0.012 0.01,0.019zm-0.017 -0.03c-0.006,-0.008 -0.011,-0.016 -0.016,-0.023 0.005,0.007 0.01,0.016 0.016,0.023zm-0.018 -0.028c-0.005,-0.009 -0.012,-0.019 -0.018,-0.028 0.006,0.01 0.011,0.017 0.018,0.028zm-0.018 -0.028c-2.444,-3.99 -3.597,-9.782 -3.815,-16.546l0 0c0.22,6.766 1.37,12.556 3.815,16.546z"/>
   <path class="fil9" d="M387.823 506.594l-5.741 0c-3.222,-0.666 -5.651,-2.55 -7.419,-5.355l-0.001 -0.001c-0.006,-0.009 -0.011,-0.02 -0.016,-0.027 -0.004,-0.005 -0.004,-0.005 -0.007,-0.009 -0.004,-0.007 -0.009,-0.014 -0.013,-0.021 -0.002,-0.004 -0.005,-0.009 -0.009,-0.014 -0.001,-0.006 -0.005,-0.009 -0.009,-0.015 -0.003,-0.007 -0.007,-0.012 -0.01,-0.019 -0.004,-0.004 -0.005,-0.007 -0.007,-0.011 -0.006,-0.007 -0.011,-0.016 -0.016,-0.023 0,-0.001 -0.002,-0.003 -0.002,-0.005 -0.007,-0.011 -0.012,-0.018 -0.018,-0.028l0 0c-2.444,-3.99 -3.595,-9.78 -3.815,-16.546l10.861 0.979c1.276,0.672 2.702,1.156 4.29,1.432l6.84 0c0.966,0 1.919,-0.058 2.856,-0.168l11.497 1.036c-1.288,3.234 -2.539,6.157 -3.666,8.687l0 0c-2.744,6.155 -8.855,10.108 -15.595,10.108zm21.208 -23.858c-0.221,-0.084 -0.457,-0.139 -0.705,-0.162l-1.803 -0.163c1.753,-1.357 3.233,-2.983 4.345,-4.828 -0.606,1.771 -1.22,3.493 -1.837,5.153zm-33.228 -3.095l-4.864 -0.44c-0.063,-0.005 -0.128,-0.009 -0.191,-0.01 0.161,-5.057 0.735,-10.489 1.596,-16.015 0.076,6.525 1.107,12.244 3.459,16.465z"/>
   <path class="fil1" d="M407.084 487.799l-11.497 -1.036c4.125,-0.491 7.93,-2.027 10.935,-4.352l1.804 0.163c0.248,0.023 0.484,0.078 0.705,0.162 -0.652,1.757 -1.304,3.449 -1.947,5.063zm-25.483 -2.3l-10.861 -0.979c-0.056,-1.719 -0.051,-3.499 0.008,-5.329 0.064,0.001 0.127,0.005 0.191,0.01l4.864 0.44c1.422,2.552 3.328,4.558 5.798,5.858z"/>
   <path class="fil1" d="M382.372 503.936l5.451 0c5.688,0 10.856,-3.349 13.168,-8.531 4.387,-9.826 10.262,-24.848 13.337,-40.631 3.65,-18.735 2.428,-33.641 -3.635,-44.3 -0.33,-0.581 -0.682,-1.148 -1.049,-1.69 -0.995,-0.813 -5.519,-4.227 -10.422,-3.409 -3.575,0.597 -6.764,3.363 -9.476,8.223 -3.576,6.402 -9.362,22.768 -13.044,40.484 -4.2,20.217 -4.466,35.829 -0.745,43.961 1.509,3.301 3.608,5.232 6.415,5.893zm5.451 5.315l-5.741 0c-0.181,0 -0.361,-0.018 -0.538,-0.055 -4.638,-0.957 -8.146,-3.966 -10.423,-8.943 -5.366,-11.733 -2.756,-32.173 0.378,-47.254 3.829,-18.43 9.742,-35.075 13.605,-41.993 3.552,-6.361 8.024,-10.021 13.293,-10.882 8.082,-1.318 14.746,4.644 15.026,4.899 0.147,0.133 0.278,0.281 0.391,0.444 0.53,0.759 1.035,1.559 1.501,2.381 6.706,11.793 8.13,27.925 4.229,47.943 -3.169,16.275 -9.2,31.704 -13.701,41.779 -3.162,7.096 -10.236,11.681 -18.02,11.681z"/>
   <path class="fil4" d="M87.776 506.594l-5.741 0c-6.742,0 -12.852,-3.953 -15.595,-10.108 -8.594,-19.243 -24.261,-61.523 -9.586,-87.327 0.428,-0.753 0.884,-1.477 1.368,-2.172 0,0 14.09,-12.814 24.21,5.316 9.455,16.932 29.301,89.346 5.344,94.291z"/>
   <path class="fil0" d="M87.616 424.37c-0.002,-0.004 -0.005,-0.007 -0.007,-0.013 -1.844,-5.124 -3.646,-9.315 -5.177,-12.054 1.536,2.742 3.338,6.934 5.184,12.067z"/>
   <path class="fil5" d="M52.958 418.583c0.245,-0.863 0.512,-1.717 0.805,-2.558 0,0 0,0 0,0 -0.291,0.841 -0.56,1.695 -0.805,2.558z"/>
   <path class="fil6" d="M53.763 416.025c0,0 0,0 0,0 0.828,-2.392 1.851,-4.688 3.091,-6.866 -1.239,2.179 -2.262,4.476 -3.091,6.866z"/>
   <path class="fil7" d="M51.2 427.961c0.334,-3.225 0.906,-6.366 1.758,-9.377 0.245,-0.864 0.513,-1.718 0.805,-2.559 0.829,-2.39 1.852,-4.686 3.091,-6.866l0 0c0.428,-0.753 0.884,-1.477 1.368,-2.172 0,0 4.834,-4.395 10.873,-4.395 4.271,-0.001 9.145,2.199 13.337,9.711l0 0c1.531,2.739 3.333,6.931 5.177,12.054 -0.252,-0.4 -0.501,-0.779 -0.746,-1.13 -5.156,-7.51 -11.15,-9.711 -16.401,-9.711 -7.427,0 -13.369,4.396 -13.369,4.396 -0.594,0.696 -1.158,1.419 -1.679,2.172 -1.738,2.484 -3.128,5.118 -4.214,7.877z"/>
   <path class="fil1" d="M51.277 429.896c-1.276,0 -2.402,-0.921 -2.619,-2.22 -0.241,-1.448 0.737,-2.817 2.184,-3.06l35.215 -5.878c1.448,-0.242 2.817,0.735 3.058,2.184 0.243,1.448 -0.735,2.817 -2.183,3.058l-35.215 5.879c-0.148,0.024 -0.295,0.037 -0.44,0.037z"/>
   <path class="fil1" d="M51.501 448.922c-1.31,0 -2.451,-0.969 -2.631,-2.305 -0.195,-1.454 0.825,-2.792 2.28,-2.987l41.195 -5.538c1.456,-0.197 2.792,0.825 2.987,2.28 0.197,1.454 -0.824,2.792 -2.279,2.987l-41.195 5.538c-0.12,0.016 -0.24,0.025 -0.357,0.025z"/>
   <path class="fil1" d="M55.135 467.557c-1.324,0 -2.47,-0.988 -2.634,-2.335 -0.179,-1.456 0.858,-2.781 2.315,-2.96l41.816 -5.119c1.457,-0.177 2.784,0.858 2.961,2.316 0.179,1.456 -0.858,2.782 -2.314,2.96l-41.817 5.119c-0.11,0.012 -0.219,0.019 -0.327,0.019z"/>
   <path class="fil1" d="M61.767 487.879c-1.359,0 -2.52,-1.038 -2.644,-2.419 -0.131,-1.461 0.947,-2.753 2.408,-2.886l37.387 -3.373c1.463,-0.131 2.753,0.946 2.886,2.408 0.131,1.461 -0.946,2.753 -2.408,2.886l-37.387 3.373c-0.081,0.008 -0.163,0.011 -0.242,0.011z"/>
   <path class="fil8" d="M95.424 500.864c0.002,-0.002 0.002,-0.004 0.004,-0.006 -0.002,0.002 -0.002,0.004 -0.004,0.006zm0.018 -0.03c0.002,-0.004 0.003,-0.006 0.005,-0.009 -0.002,0.002 -0.003,0.007 -0.005,0.009zm0.016 -0.029c0.003,-0.005 0.007,-0.01 0.01,-0.016 -0.003,0.006 -0.007,0.011 -0.01,0.016zm0.018 -0.028c0.003,-0.007 0.008,-0.016 0.012,-0.023 -0.004,0.009 -0.007,0.016 -0.012,0.023zm0.015 -0.028c0.006,-0.009 0.011,-0.018 0.016,-0.029 -0.005,0.011 -0.01,0.02 -0.016,0.029zm0.018 -0.031c2.303,-3.973 3.395,-9.625 3.609,-16.198l0 0c-0.213,6.571 -1.306,12.225 -3.609,16.198z"/>
   <path class="fil9" d="M87.776 506.594l-5.741 0c-6.742,0 -12.852,-3.953 -15.595,-10.108l0 0c-1.128,-2.53 -2.377,-5.453 -3.665,-8.687l11.495 -1.036c0.937,0.11 1.892,0.168 2.855,0.168l6.843 0c1.586,-0.276 3.012,-0.76 4.288,-1.432l10.862 -0.979c-0.214,6.573 -1.306,12.225 -3.609,16.198 0,0.002 0,0.002 -0.002,0.002 -0.005,0.011 -0.01,0.02 -0.016,0.029 0,0.001 -0.001,0.005 -0.003,0.005 -0.004,0.007 -0.009,0.016 -0.012,0.023 -0.002,0.003 -0.006,0.009 -0.008,0.012 -0.003,0.006 -0.007,0.011 -0.01,0.016 -0.004,0.007 -0.007,0.013 -0.011,0.02 -0.002,0.003 -0.003,0.005 -0.005,0.009 -0.005,0.008 -0.009,0.016 -0.014,0.024 -0.002,0.002 -0.002,0.004 -0.004,0.006 -1.786,3.012 -4.286,5.035 -7.648,5.73l0 0zm-26.95 -23.858c-0.615,-1.66 -1.232,-3.382 -1.836,-5.153 1.111,1.845 2.593,3.471 4.346,4.828l-1.805 0.163c-0.246,0.023 -0.484,0.078 -0.705,0.162zm33.23 -3.095c2.35,-4.221 3.382,-9.94 3.457,-16.465 0.863,5.526 1.437,10.958 1.598,16.015 -0.064,0.001 -0.129,0.005 -0.193,0.01l-4.862 0.44z"/>
   <path class="fil1" d="M62.775 487.799c-0.643,-1.614 -1.297,-3.306 -1.949,-5.063 0.221,-0.084 0.459,-0.139 0.705,-0.162l1.805 -0.163c3.003,2.325 6.809,3.861 10.934,4.352l-11.495 1.036zm25.481 -2.3c2.471,-1.3 4.377,-3.304 5.8,-5.858l4.862 -0.44c0.064,-0.005 0.129,-0.009 0.193,-0.01 0.058,1.83 0.062,3.61 0.007,5.329l0 0 -10.862 0.979z"/>
   <path class="fil1" d="M60.213 408.784c-0.367,0.542 -0.718,1.108 -1.048,1.687 -6.063,10.662 -7.286,25.568 -3.635,44.303 3.075,15.783 8.949,30.805 13.336,40.63 2.312,5.183 7.48,8.532 13.169,8.532l5.452 0c2.804,-0.661 4.904,-2.592 6.415,-5.893 3.719,-8.132 3.455,-23.744 -0.748,-43.961 -3.679,-17.716 -9.466,-34.081 -13.041,-40.484 -2.714,-4.86 -5.902,-7.626 -9.477,-8.223 -4.896,-0.815 -9.415,2.587 -10.423,3.409zm27.563 100.467l-5.741 0c-7.785,0 -14.858,-4.585 -18.022,-11.682 -4.5,-10.074 -10.529,-25.503 -13.7,-41.778 -3.901,-20.018 -2.477,-36.15 4.231,-47.944 0.466,-0.821 0.971,-1.623 1.499,-2.38 0.114,-0.163 0.245,-0.311 0.391,-0.444 0.28,-0.255 6.943,-6.217 15.026,-4.899 5.269,0.861 9.742,4.521 13.293,10.882 3.862,6.918 9.776,23.563 13.607,41.993 3.132,15.081 5.742,35.521 0.375,47.254 -2.276,4.977 -5.783,7.986 -10.423,8.943 -0.177,0.037 -0.356,0.055 -0.536,0.055z"/>
   <path class="fil1" d="M152.575 504.168c-0.378,0 -0.761,-0.088 -1.119,-0.276 -1.183,-0.621 -1.64,-2.08 -1.02,-3.264 10.094,-19.285 10.242,-40.973 0.443,-64.462 -7.391,-17.716 -17.976,-29.838 -18.082,-29.958 -0.883,-1.001 -0.787,-2.528 0.214,-3.41 1.001,-0.885 2.526,-0.789 3.411,0.212 0.452,0.51 11.151,12.744 18.861,31.159 4.55,10.866 7.087,21.619 7.545,31.96 0.574,13.003 -2.155,25.364 -8.11,36.742 -0.43,0.824 -1.272,1.297 -2.143,1.297z"/>
   <path class="fil1" d="M318.264 504.168c-0.87,0 -1.711,-0.473 -2.144,-1.297 -5.955,-11.378 -8.683,-23.739 -8.109,-36.742 0.457,-10.341 2.996,-21.094 7.546,-31.96 7.711,-18.415 18.41,-30.649 18.862,-31.159 0.884,-1.001 2.411,-1.097 3.41,-0.212 1.001,0.882 1.097,2.409 0.214,3.41l0.001 0c-0.107,0.12 -10.691,12.242 -18.083,29.958 -9.799,23.489 -9.65,45.177 0.443,64.462 0.619,1.184 0.161,2.644 -1.02,3.264 -0.358,0.188 -0.743,0.276 -1.12,0.276z"/>
   <path class="fil2" d="M306.255 280.998l0 0c-1.029,-2.754 -2.091,-5.525 -3.182,-8.311 1.722,-1.16 3.415,-2.363 5.076,-3.608 1.529,1.633 3.104,3.392 4.715,5.269 -2.13,2.314 -4.336,4.533 -6.609,6.65z"/>
   <path class="fil1" d="M312.864 274.348c-1.611,-1.877 -3.186,-3.636 -4.715,-5.269 0.863,-0.647 1.715,-1.304 2.562,-1.974 1.425,1.529 2.865,3.143 4.32,4.828 -0.714,0.816 -1.436,1.621 -2.167,2.415z"/>
   <path class="fil2" d="M163.664 280.821c-3.044,-2.856 -5.964,-5.883 -8.751,-9.074 1.511,-0.477 3.058,-0.984 4.635,-1.519 2.116,1.536 4.275,3.003 6.479,4.4 -0.804,2.073 -1.593,4.136 -2.363,6.193l0 0z"/>
   <path class="fil1" d="M154.913 271.747c-0.767,-0.879 -1.525,-1.77 -2.272,-2.674 1.259,-0.39 2.515,-0.79 3.766,-1.201 1.036,0.803 2.081,1.587 3.141,2.356 -1.577,0.535 -3.124,1.042 -4.635,1.519z"/>
   <path class="fil2" d="M235.051 310.152c-16.229,0 -31.675,-3.974 -45.69,-11.144 -9.259,-4.746 -17.889,-10.878 -25.697,-18.187l0 0c0.77,-2.057 1.559,-4.12 2.363,-6.193 7.059,4.477 14.557,8.233 22.439,11.238 14.244,5.426 29.18,8.169 44.472,8.169 1.543,0 3.091,-0.028 4.64,-0.085 16.909,-0.609 33.193,-4.513 48.402,-11.603 5.974,-2.785 11.679,-6.01 17.093,-9.66 1.091,2.786 2.153,5.557 3.182,8.311l0 0c-7.251,6.753 -15.197,12.498 -23.698,17.05 -14.358,7.703 -30.29,12.023 -47.066,12.104 -0.145,0 -0.294,0 -0.44,0z"/>
   <path class="fil0" d="M354.545 194.119c-1.364,0.147 -2.588,-0.84 -2.735,-2.204l-7.645 -71.144c-0.147,-1.364 0.839,-2.588 2.204,-2.735l0 0c14.31,-1.539 27.158,8.817 28.697,23.128l2.606 24.258c1.537,14.31 -8.817,27.159 -23.127,28.697z"/>
   <path class="fil1" d="M349.174 118.498c-0.906,0 -1.82,0.048 -2.74,0.147 -0.496,0.053 -0.942,0.298 -1.256,0.687 -0.315,0.388 -0.457,0.877 -0.404,1.373l7.645 71.144c0.053,0.496 0.296,0.943 0.686,1.256 0.39,0.313 0.877,0.457 1.375,0.404 6.759,-0.726 12.829,-4.041 17.095,-9.333 4.265,-5.292 6.213,-11.929 5.487,-18.688l-2.606 -24.259c-1.399,-13.033 -12.461,-22.731 -25.282,-22.731zm5.1 76.248c-0.705,0 -1.382,-0.239 -1.938,-0.686 -0.643,-0.519 -1.047,-1.258 -1.136,-2.08l-7.645 -71.143c-0.087,-0.822 0.149,-1.63 0.668,-2.273 0.519,-0.645 1.258,-1.047 2.08,-1.136 14.626,-1.572 27.799,9.046 29.37,23.67l2.609 24.26c0.759,7.083 -1.284,14.039 -5.754,19.587 -4.47,5.547 -10.834,9.021 -17.917,9.783l-0.066 -0.609 0.066 0.609c-0.114,0.011 -0.225,0.018 -0.337,0.018z"/>
   <path class="fil2" d="M356.548 190.35c0.986,-5.659 1.582,-11.396 1.778,-17.185 6.674,-1.923 12.15,-6.405 15.435,-12.22l0.521 4.842c0.647,6.015 -1.088,11.924 -4.884,16.635 -3.292,4.084 -7.792,6.844 -12.85,7.928z"/>
   <path class="fil1" d="M347.655 121.345l7.443 69.267c5.647,-0.836 10.696,-3.72 14.3,-8.19 3.797,-4.711 5.531,-10.62 4.884,-16.635l-2.606 -24.26c-1.302,-12.11 -11.975,-20.988 -24.021,-20.182zm6.527 69.385l-0.001 0 0.001 0zm0.087 6.812c-1.34,0 -2.629,-0.452 -3.687,-1.304 -1.226,-0.989 -1.993,-2.394 -2.162,-3.96l-7.644 -71.142c-0.169,-1.564 0.283,-3.102 1.27,-4.328 0.988,-1.224 2.393,-1.993 3.959,-2.161 16.153,-1.735 30.713,9.996 32.45,26.152l2.606 24.26c0.842,7.825 -1.416,15.512 -6.355,21.64 -4.939,6.129 -11.97,9.967 -19.798,10.809 -0.213,0.023 -0.427,0.034 -0.639,0.034z"/>
   <path class="fil0" d="M111.545 143.27c1.364,-0.147 2.588,0.84 2.735,2.204l7.645 71.144c0.148,1.364 -0.839,2.588 -2.203,2.735 -14.311,1.538 -27.16,-8.818 -28.697,-23.128l-2.606 -24.258c-1.538,-14.311 8.816,-27.159 23.126,-28.697z"/>
   <path class="fil1" d="M111.813 143.869c-0.068,0 -0.135,0.004 -0.202,0.011 -13.953,1.498 -24.083,14.069 -22.583,28.021l2.606 24.259c1.499,13.952 14.068,24.083 28.022,22.584 1.026,-0.11 1.77,-1.035 1.66,-2.06l-7.645 -71.144c-0.103,-0.959 -0.916,-1.671 -1.858,-1.671zm5.104 76.246c-13.442,0.002 -25.033,-10.164 -26.5,-23.824l-2.608 -24.259c-1.571,-14.624 9.047,-27.8 23.671,-29.371l0.065 0.609 -0.065 -0.61c1.697,-0.182 3.226,1.051 3.41,2.749l7.643 71.143c0.183,1.697 -1.049,3.226 -2.748,3.409 -0.962,0.104 -1.921,0.154 -2.868,0.154z"/>
   <path class="fil2" d="M116.918 216.095c-11.413,-0.002 -21.256,-8.633 -22.504,-20.233l-0.505 -4.708c4.537,4.556 10.726,7.408 17.454,7.667 1.449,5.878 3.327,11.644 5.628,17.274 -0.023,0 -0.048,0 -0.073,0z"/>
   <path class="fil1" d="M110.992 146.776c-11.943,1.774 -20.486,12.714 -19.184,24.826l2.606 24.26c1.302,12.109 11.975,20.988 24.021,20.182l-7.443 -69.268zm5.923 76.136c-14.85,0.002 -27.657,-11.23 -29.279,-26.322l-2.606 -24.26c-1.737,-16.157 9.994,-30.713 26.15,-32.449 3.23,-0.346 6.142,1.999 6.49,5.23l7.645 71.141c0.347,3.232 -1.999,6.143 -5.23,6.49 -1.063,0.114 -2.125,0.17 -3.17,0.17z"/>
   <path class="fil0" d="M354.911 164.297c2.429,67.297 -50.158,123.819 -117.456,126.247 -67.296,2.428 -123.818,-50.158 -126.247,-117.455 -2.427,-67.296 50.159,-123.819 117.456,-126.247 67.296,-2.428 123.819,50.158 126.247,117.455z"/>
   <path class="fil1" d="M233.117 47.374c-1.474,0 -2.946,0.026 -4.432,0.08 -66.85,2.411 -119.275,58.761 -116.864,125.613 1.168,32.383 14.877,62.375 38.602,84.448 22.627,21.051 51.784,32.498 82.527,32.498 1.492,0 2.985,-0.027 4.482,-0.082 32.386,-1.167 62.376,-14.876 84.45,-38.602 22.072,-23.725 33.584,-54.626 32.417,-87.01 -2.358,-65.366 -56.294,-116.945 -121.182,-116.945zm-0.177 243.863c-14.95,0 -29.555,-2.68 -43.478,-7.985 -14.805,-5.643 -28.221,-14 -39.873,-24.841 -11.652,-10.841 -20.954,-23.619 -27.649,-37.979 -6.93,-14.868 -10.747,-30.788 -11.343,-47.32 -0.597,-16.533 2.062,-32.689 7.903,-48.016 5.644,-14.806 14.001,-28.221 24.842,-39.873 10.841,-11.653 23.619,-20.955 37.979,-27.649 14.868,-6.931 30.788,-10.748 47.32,-11.344 16.532,-0.597 32.687,2.063 48.016,7.904 14.806,5.642 28.221,13.999 39.873,24.84 11.652,10.841 20.955,23.62 27.649,37.979 6.931,14.868 10.747,30.789 11.344,47.323 0.596,16.531 -2.064,32.686 -7.905,48.015 -5.641,14.805 -13.998,28.221 -24.84,39.873 -10.84,11.652 -23.618,20.954 -37.98,27.647 -14.867,6.932 -30.789,10.748 -47.321,11.345 -1.515,0.054 -3.028,0.081 -4.537,0.081z"/>
   <path class="fil2" d="M232.954 287.217c-26.631,-0.001 -52.041,-8.791 -72.869,-25.119 4.082,2.021 8.435,3.939 12.932,5.673 13.394,5.164 33.572,10.947 56.773,10.947 2.705,0 5.455,-0.078 8.236,-0.246 28.642,-1.724 51.624,-10.591 65.86,-17.726 3.613,-1.811 7.087,-3.726 10.366,-5.701 -20.909,19.717 -47.933,31.047 -76.919,32.093 -1.465,0.053 -2.923,0.079 -4.379,0.079z"/>
   <path class="fil1" d="M233.115 50.17c-1.44,0 -2.878,0.026 -4.329,0.078 -65.31,2.357 -116.527,57.407 -114.171,122.718 1.141,31.638 14.536,60.937 37.713,82.502 22.106,20.566 50.591,31.748 80.626,31.749 1.456,0 2.914,-0.026 4.379,-0.079 31.638,-1.141 60.937,-14.536 82.501,-37.713 21.563,-23.18 32.812,-53.368 31.671,-85.005 -2.305,-63.859 -54.996,-114.25 -118.39,-114.25zm-0.177 243.865c-15.292,0 -30.228,-2.742 -44.472,-8.169 -15.143,-5.773 -28.865,-14.32 -40.781,-25.407 -11.917,-11.088 -21.432,-24.157 -28.279,-38.845 -7.09,-15.21 -10.994,-31.494 -11.603,-48.401 -0.611,-16.91 2.11,-33.433 8.084,-49.113 5.771,-15.144 14.32,-28.865 25.407,-40.782 11.088,-11.918 24.157,-21.432 38.845,-28.279 15.209,-7.09 31.494,-10.994 48.401,-11.604 16.91,-0.609 33.433,2.111 49.112,8.086 15.145,5.771 28.866,14.319 40.782,25.406 11.918,11.088 21.432,24.157 28.28,38.846 7.089,15.209 10.994,31.493 11.603,48.402 0.61,16.908 -2.11,33.43 -8.086,49.112 -5.77,15.143 -14.319,28.865 -25.406,40.781 -11.086,11.917 -24.156,21.431 -38.845,28.279 -15.209,7.09 -31.493,10.994 -48.402,11.603 -1.549,0.057 -3.097,0.085 -4.64,0.085z"/>
   <path class="fil1" d="M354.634 167.44c1.221,23.829 -5.382,46.348 -17.673,65.329 -9.214,14.23 -48.756,40.335 -99.077,43.366 -46.656,2.81 -90.403,-19.904 -101.023,-33.118 -14.167,-17.625 -23.034,-39.352 -24.255,-63.182 -3.228,-63.058 49.61,-91.973 116.446,-95.396 66.837,-3.423 122.352,19.944 125.582,83.001z"/>
   <path class="fil1" d="M241.508 86.457c-4.035,0 -8.145,0.107 -12.335,0.322 -34.703,1.777 -63.484,10.381 -83.232,24.884 -22.051,16.191 -32.479,39.088 -30.996,68.053 1.157,22.564 9.365,43.946 23.741,61.834 4.278,5.322 16.277,14.237 36.015,21.85 14.523,5.601 37.247,11.951 63.043,10.396 27.85,-1.677 50.198,-10.3 64.045,-17.239 18.552,-9.297 29.481,-19.311 33.205,-25.061 12.474,-19.262 18.456,-41.371 17.301,-63.935l0 0c-1.483,-28.965 -14.197,-50.677 -37.786,-64.531 -18.574,-10.91 -43.635,-16.572 -73.001,-16.572zm-11.718 192.26c-23.201,0 -43.38,-5.783 -56.773,-10.947 -16.961,-6.541 -31.87,-15.682 -37.981,-23.286 -14.997,-18.661 -23.562,-40.974 -24.769,-64.53 -0.801,-15.63 1.776,-29.812 7.658,-42.154 5.536,-11.616 14.028,-21.68 25.243,-29.915 20.489,-15.045 50.145,-23.962 85.764,-25.786 35.621,-1.824 66.032,4.017 87.95,16.89 11.997,7.046 21.473,16.192 28.167,27.18 7.112,11.675 11.124,25.521 11.923,41.151 1.207,23.556 -5.033,46.627 -18.045,66.722 -5.407,8.348 -18.833,18.582 -35.041,26.703 -14.235,7.135 -37.218,16.002 -65.86,17.726 -2.781,0.168 -5.531,0.246 -8.236,0.246z"/>
   <path class="fil10" d="M313.58 182.384c-0.487,0 -0.979,-0.031 -1.471,-0.095 -8.564,-1.102 -14.273,-11.578 -12.751,-23.397 1.435,-11.141 8.781,-19.498 16.792,-19.498 0.489,-0.001 0.98,0.03 1.471,0.094 6.922,0.89 11.978,7.904 12.86,16.801 -0.646,5.317 -1.599,10.556 -2.841,15.696 -3.155,6.293 -8.444,10.4 -14.06,10.399z"/>
   <path class="fil10" d="M297.261 214.371c-0.649,0 -1.303,-0.085 -1.95,-0.262 -4.526,-1.237 -7.028,-6.516 -5.587,-11.793 1.236,-4.522 4.967,-7.575 8.862,-7.575 0.648,0 1.3,0.085 1.947,0.262 4.528,1.236 7.03,6.516 5.587,11.793 -1.234,4.523 -4.967,7.575 -8.859,7.575z"/>
   <path class="fil11" d="M229.784 274.034c-13.121,0 -25.257,-1.914 -35.675,-4.504 58.592,-6.681 103.748,-37.055 114.767,-54.072 8.601,-13.285 15.008,-27.934 18.764,-43.473 1.347,-2.685 2.303,-5.767 2.732,-9.098 0.293,-2.268 0.319,-4.486 0.109,-6.598 0.944,-7.762 1.234,-15.694 0.821,-23.743 -0.334,-6.61 -1.132,-12.875 -2.346,-18.81 14.36,13.436 22.195,31.471 23.339,53.825l0 0c1.156,22.564 -4.828,44.673 -17.301,63.935 -3.724,5.75 -14.654,15.764 -33.205,25.061 -13.847,6.939 -36.195,15.562 -64.045,17.239 -2.689,0.161 -5.343,0.238 -7.96,0.238z"/>
   <path class="fil11" d="M229.873 276.378c-14.945,0 -29.398,-2.461 -42.355,-6.203 2.215,-0.181 4.413,-0.397 6.591,-0.645 10.418,2.59 22.554,4.504 35.675,4.504 2.617,0 5.271,-0.077 7.96,-0.238 27.85,-1.677 50.198,-10.3 64.045,-17.239 18.552,-9.297 29.481,-19.311 33.205,-25.061 12.474,-19.262 18.456,-41.371 17.301,-63.935l0 0c-1.144,-22.354 -8.979,-40.389 -23.339,-53.825 -0.269,-1.322 -0.561,-2.628 -0.871,-3.918 15.516,13.359 25.247,32.294 26.547,57.619 1.221,23.835 -5.386,46.351 -17.668,65.332 -9.217,14.23 -48.763,40.335 -99.082,43.37 -2.68,0.163 -5.353,0.239 -8.009,0.239z"/>
   <path class="fil12" d="M327.64 171.984c1.242,-5.139 2.195,-10.378 2.841,-15.695 0.21,2.112 0.183,4.33 -0.109,6.598 -0.428,3.331 -1.386,6.413 -2.732,9.097z"/>
   <path class="fil1" d="M118.967 128.877c-0.686,0 -1.379,-0.215 -1.969,-0.659 -1.392,-1.047 -1.713,-2.991 -0.765,-4.426 5.06,-8.315 11.521,-15.91 19.203,-22.579 7.481,-6.493 16.18,-12.16 25.855,-16.844 9.476,-4.587 19.945,-8.262 31.12,-10.923 11.076,-2.637 22.9,-4.292 35.144,-4.919 12.045,-0.617 23.846,-0.201 35.077,1.236 11.336,1.449 22.109,3.941 32.027,7.405 10.147,3.546 19.43,8.124 27.593,13.608 8.393,5.636 15.653,12.267 21.581,19.707 1.035,1.148 1.141,2.904 0.172,4.178 -1.095,1.441 -3.151,1.722 -4.594,0.627l-0.343 -0.258 -0.259 -0.329c-21.952,-27.667 -62.379,-42.109 -110.917,-39.624 -48.807,2.5 -87.482,21.528 -106.106,52.205l-0.086 0.14 -0.109 0.147c-0.645,0.856 -1.628,1.308 -2.624,1.308z"/>
   <path class="fil10" d="M141.705 215.957c0,0 -22.716,-61.208 9.54,-87.713 25.462,-20.924 60.884,-26.808 74.198,-26.808 3.553,0 5.53,0.418 5.326,1.082 0,0 -52.735,15.663 -71.466,58.946 -14.444,33.377 -17.598,54.493 -17.598,54.493z"/>
   <path class="fil1" d="M364.658 425.564c-0.072,0.538 -0.174,1.112 -0.28,1.667 -0.106,0.561 -0.228,1.117 -0.347,1.676 -0.246,1.113 -0.517,2.22 -0.803,3.326 -0.563,2.211 -1.222,4.403 -1.842,6.608 -0.615,2.206 -1.224,4.417 -1.807,6.646l-0.422 1.676c-0.15,0.56 -0.278,1.121 -0.414,1.685l-0.202 0.847 -0.105 0.425 -0.092 0.425c-0.12,0.569 -0.252,1.139 -0.395,1.715l-0.005 0.02c-0.052,0.207 -0.261,0.333 -0.468,0.281 -0.151,-0.037 -0.259,-0.157 -0.285,-0.301 -0.229,-1.169 -0.433,-2.36 -0.534,-3.547l-0.09 -0.894c-0.026,-0.3 -0.038,-0.596 -0.057,-0.895 -0.03,-0.594 -0.064,-1.192 -0.08,-1.789 -0.051,-2.387 0.039,-4.768 0.227,-7.137 0.202,-2.366 0.477,-4.725 0.939,-7.044 0.227,-1.161 0.493,-2.312 0.81,-3.452 0.158,-0.569 0.328,-1.137 0.514,-1.701 0.188,-0.569 0.386,-1.116 0.627,-1.695 0.569,-1.364 2.135,-2.009 3.497,-1.442 1.145,0.476 1.784,1.653 1.625,2.825l-0.011 0.075z"/>
   <path class="fil1" d="M110.539 424.106c0.243,0.579 0.441,1.126 0.628,1.695 0.187,0.563 0.357,1.133 0.515,1.701 0.317,1.14 0.582,2.291 0.809,3.452 0.463,2.319 0.735,4.679 0.939,7.044 0.186,2.369 0.278,4.75 0.227,7.137 -0.016,0.597 -0.05,1.195 -0.08,1.791 -0.019,0.297 -0.03,0.593 -0.057,0.893l-0.092 0.894c-0.099,1.187 -0.303,2.378 -0.531,3.547 -0.041,0.211 -0.243,0.348 -0.454,0.307 -0.15,-0.031 -0.265,-0.146 -0.301,-0.287l-0.003 -0.02c-0.144,-0.576 -0.275,-1.146 -0.395,-1.715l-0.093 -0.425 -0.104 -0.425 -0.202 -0.847c-0.137,-0.564 -0.264,-1.125 -0.415,-1.685l-0.421 -1.676c-0.584,-2.229 -1.193,-4.44 -1.808,-6.646 -0.622,-2.205 -1.279,-4.397 -1.842,-6.608 -0.286,-1.106 -0.557,-2.213 -0.803,-3.326 -0.119,-0.558 -0.241,-1.114 -0.347,-1.676 -0.106,-0.555 -0.207,-1.129 -0.28,-1.667l-0.011 -0.073c-0.198,-1.463 0.829,-2.811 2.293,-3.008 1.227,-0.167 2.374,0.531 2.828,1.623z"/>
   <path class="fil13" d="M343.562 513.61l-216.25 0c-7.002,0 -12.679,-5.677 -12.679,-12.679 0,-4.034 3.27,-7.305 7.305,-7.305l226.998 0c4.034,0 7.303,3.271 7.303,7.305 0,7.002 -5.675,12.679 -12.677,12.679z"/>
   <path class="fil14" d="M118.52 501.416c-0.227,-0.219 -0.448,-0.448 -0.659,-0.683 0.104,-2.158 1.893,-3.884 4.077,-3.884l226.998 0c2.181,0 3.969,1.722 4.075,3.878 -0.158,0.177 -0.321,0.351 -0.489,0.519 -0.056,0.057 -0.113,0.112 -0.172,0.169 -1.017,-0.541 -2.179,-0.845 -3.414,-0.845l-226.995 0c-1.234,0 -2.398,0.304 -3.421,0.846z"/>
   <path class="fil15" d="M343.562 510.387l-216.25 0c-4.924,0 -8.982,-3.784 -9.417,-8.597 0.202,-0.134 0.411,-0.258 0.625,-0.374 2.281,2.194 5.383,3.544 8.795,3.544l216.247 0c3.411,0 6.515,-1.348 8.788,-3.545 0.216,0.113 0.425,0.239 0.627,0.373 -0.434,4.815 -4.491,8.599 -9.415,8.599z"/>
   <path class="fil16" d="M117.895 501.79c-0.025,-0.283 -0.039,-0.568 -0.039,-0.859 0,-0.066 0.001,-0.133 0.005,-0.198 0.211,0.235 0.432,0.464 0.659,0.683 -0.214,0.116 -0.424,0.24 -0.625,0.374zm235.082 -0.002c-0.202,-0.134 -0.411,-0.26 -0.627,-0.373 0.059,-0.057 0.115,-0.112 0.172,-0.169 0.168,-0.168 0.331,-0.342 0.489,-0.519 0.003,0.068 0.005,0.137 0.005,0.204 0,0.289 -0.012,0.576 -0.039,0.857z"/>
   <path class="fil1" d="M121.938 496.849c-2.25,0 -4.082,1.832 -4.082,4.082 0,5.214 4.241,9.456 9.455,9.456l216.251 0c5.213,0 9.454,-4.242 9.454,-9.456 0,-2.25 -1.83,-4.082 -4.08,-4.082l-226.998 0zm221.624 19.983l-216.25 0c-8.768,0 -15.902,-7.133 -15.902,-15.901 0,-5.804 4.722,-10.527 10.528,-10.527l226.998 0c5.804,0 10.528,4.723 10.528,10.527 0,8.768 -7.135,15.901 -15.902,15.901z"/>
   <path class="fil17" d="M368.863 350.888l-21.151 142.735 -224.546 0 -0.766 -5.165 -20.394 -137.57c-0.669,-4.52 2.837,-8.573 7.397,-8.573l252.063 -0.001c4.569,0 8.066,4.054 7.397,8.574z"/>
   <path class="fil13" d="M368.863 350.888l-21.151 142.735 -224.546 0 -0.766 -5.165 -20.394 -137.57c-0.669,-4.52 2.837,-8.573 7.397,-8.573l252.063 -0.001c4.569,0 8.066,4.054 7.397,8.574z"/>
   <path class="fil18" d="M125.646 488.377l-20.449 -137.964c-0.184,-1.242 0.166,-2.451 0.987,-3.402 0.82,-0.951 1.963,-1.474 3.219,-1.474l228.058 0c0.377,1.761 0.706,3.648 0.976,5.636l-221.062 0c-4.56,0 -8.064,4.054 -7.397,8.574l19.056 128.532c-1.239,0.036 -2.371,0.068 -3.388,0.098zm239.918 -137.204l-3.831 0 0.043 -0.285c0.292,-1.972 -0.209,-3.856 -1.246,-5.351l0.939 0c1.256,0 2.401,0.523 3.221,1.474 0.821,0.951 1.171,2.16 0.987,3.402l-0.113 0.76z"/>
   <path class="fil15" d="M341.102 490.404l-211.755 0 -0.313 -2.125c29.13,-0.804 116.974,-3.072 167.356,-36.838 11.471,-7.685 20.159,-17.228 26.615,-27.567 0.72,0.893 1.508,1.716 2.364,2.459 0,0.001 0,0.001 0.001,0.001 0.004,0.004 0.009,0.007 0.013,0.011 0.682,0.592 1.406,1.133 2.177,1.62 4.802,3.029 9.015,3.869 12.785,3.869 2.344,0 4.518,-0.324 6.553,-0.65 1.051,-0.167 2.065,-0.335 3.048,-0.457l-8.844 59.677zm19.903 -134.308c-3.247,-0.852 -7.441,-1.613 -12.063,-1.613 -3.184,0 -6.574,0.361 -9.999,1.303 -0.134,-1.592 -0.304,-3.132 -0.506,-4.613l23.296 0 -0.728 4.923z"/>
   <path class="fil19" d="M129.347 490.404l-3.401 0 -0.3 -2.027c1.017,-0.03 2.149,-0.062 3.388,-0.098l0.313 2.125zm232.386 -139.231l-23.296 0c-0.269,-1.988 -0.599,-3.875 -0.977,-5.636l23.07 0c1.037,1.495 1.538,3.379 1.246,5.351l-0.043 0.285z"/>
   <path class="fil1" d="M125.946 490.404l218.981 0 20.75 -139.991c0.184,-1.242 -0.166,-2.451 -0.987,-3.402 -0.82,-0.951 -1.965,-1.474 -3.221,-1.474l-252.066 0c-1.256,0 -2.399,0.523 -3.219,1.474 -0.821,0.951 -1.171,2.16 -0.987,3.402l20.749 139.991zm224.542 6.445l-230.104 0 -21.564 -145.492c-0.457,-3.079 0.449,-6.199 2.482,-8.557 2.035,-2.357 4.988,-3.71 8.101,-3.71l252.066 0c3.115,0 6.067,1.353 8.1,3.71 2.037,2.358 2.94,5.478 2.484,8.557l-21.565 145.492z"/>
   <path class="fil14" d="M144.2 463.699c-1.084,0 -2.237,-1.384 -3.161,-3.424 -8.519,-18.776 -14.722,-50.829 -13.324,-69.692 0.564,-7.611 2.681,-11.213 5.23,-11.213 3.767,0 8.476,7.87 10.499,22.285 6.829,48.656 4.124,62.044 0.756,62.044z"/>
   <path class="fil1" d="M258.908 406.925c-2.744,-3.592 -5.422,-7.088 -8.104,-10.6 0.003,-0.079 0.025,-0.173 0.039,-0.26 3.124,0.374 6.254,0.756 9.417,1.135 -0.061,3.407 -0.564,6.528 -1.352,9.725zm-1.648 5.019c-1.621,3.826 -3.747,7.309 -6.779,10.193 -2.34,2.213 -4.996,3.988 -7.79,5.567 -7.579,4.279 -15.703,7.229 -24.009,9.724 -0.405,0.116 -0.653,0.095 -0.921,-0.277 -0.579,-0.824 -1.229,-1.617 -1.842,-2.431 -0.043,-0.046 -0.055,-0.121 -0.114,-0.268 0.211,-0.17 0.44,-0.338 0.668,-0.513 4.74,-3.639 9.502,-7.266 14.243,-10.912 1.372,-1.04 1.43,-2.828 0.162,-3.861 -0.886,-0.725 -2.053,-0.713 -3.075,0.055 -2.852,2.176 -5.697,4.351 -8.543,6.536 -2.122,1.623 -4.227,3.239 -6.431,4.929 -0.757,-0.987 -1.487,-1.89 -2.146,-2.838 -0.111,-0.172 0.002,-0.599 0.156,-0.811 2.525,-3.771 5.03,-7.56 7.661,-11.265 2.601,-3.678 5.558,-7.077 8.811,-10.195 3.049,-2.946 6.355,-5.547 10.35,-7.097 2.562,-0.998 5.206,-1.675 7.936,-1.967 0.248,-0.035 0.607,0.213 0.783,0.441 2.776,3.589 5.519,7.185 8.27,10.786 0.826,1.072 1.639,2.166 2.491,3.225 0.252,0.321 0.282,0.592 0.119,0.979zm-18.597 27.402c-0.906,2.89 -2.635,5.243 -4.765,7.342 -2.647,2.578 -5.728,4.5 -9.059,6.256 -0.2,-4.093 -0.405,-8.095 -0.607,-12.018 5.037,-1.959 9.96,-3.871 14.912,-5.794 0.192,1.364 -0.044,2.808 -0.481,4.214zm-29.971 -18.312c-3.563,-1.161 -7.257,-2.366 -11.052,-3.601 3.922,-4.167 8.07,-7.806 13.66,-9.342 2.413,-0.664 5.205,-0.608 6.851,0.062 -3.127,4.27 -6.263,8.54 -9.459,12.881zm56.082 -19.261c0.273,-2.409 0.592,-4.845 0.121,-7.295 -0.211,-0.266 -0.404,-0.539 -0.615,-0.805 -0.7,-0.252 -1.379,-0.581 -2.104,-0.762 -5.109,-1.322 -10.29,-1.843 -15.552,-1.391 -6.861,0.592 -13.16,2.709 -18.576,7.071 -1.96,1.575 -3.749,3.353 -5.579,5.075 -0.491,0.467 -0.868,0.662 -1.558,0.349 -1.619,-0.739 -3.368,-1.067 -5.141,-1.157 -4.759,-0.215 -9.002,1.321 -12.962,3.807 -4.291,2.703 -7.75,6.316 -10.971,10.184 -1.371,1.638 -0.838,3.467 1.203,4.155 1.288,0.421 2.576,0.834 3.865,1.254 3.086,0.999 6.165,1.989 9.243,2.987 -0.005,0.096 0.003,0.147 -0.013,0.193 -0.024,0.06 -0.051,0.129 -0.093,0.188 -1.285,1.651 -0.973,3.179 0.38,4.614 0.147,0.159 0.271,0.347 0.401,0.52 0.708,0.932 1.431,1.875 2.184,2.846 -1.026,0.792 -2.034,1.465 -2.925,2.278 -0.45,0.41 -0.847,1.005 -1.017,1.595 -0.288,0.951 0.204,1.924 1.051,2.423 0.896,0.541 1.823,0.518 2.657,-0.085 1.062,-0.754 2.075,-1.573 3.154,-2.397 1.019,1.343 1.985,2.614 2.954,3.868 1.11,1.43 1.874,1.674 3.598,1.197 0.313,-0.097 0.622,-0.164 0.992,-0.255 0.027,0.369 0.053,0.665 0.069,0.941 0.218,4.453 0.422,8.908 0.666,13.347 0.112,2.104 1.774,3.1 3.675,2.196 1.715,-0.809 3.43,-1.667 5.113,-2.579 3.878,-2.108 7.407,-4.694 10.223,-8.127 3.526,-4.324 5.474,-9.153 4.562,-14.856 -0.039,-0.225 0.149,-0.609 0.344,-0.726 1.731,-1.115 3.506,-2.158 5.237,-3.28 3.912,-2.549 7.057,-5.862 9.514,-9.82 3.344,-5.379 5.19,-11.283 5.9,-17.553z"/>
   <path class="fil0" d="M248.821 416.45c-3.622,2.731 -8.75,2.063 -11.472,-1.511 -2.739,-3.569 -2.048,-8.692 1.542,-11.459 3.524,-2.715 8.653,-2.013 11.401,1.557 2.718,3.548 2.055,8.749 -1.471,11.413zm8.32 -5.485c-0.852,-1.06 -1.665,-2.153 -2.491,-3.225 -2.751,-3.601 -5.494,-7.197 -8.27,-10.786 -0.175,-0.228 -0.535,-0.476 -0.783,-0.441 -2.73,0.292 -5.374,0.969 -7.936,1.967 -3.995,1.55 -7.301,4.151 -10.35,7.097 -3.253,3.118 -6.21,6.517 -8.811,10.195 -2.631,3.704 -5.136,7.494 -7.661,11.265 -0.154,0.212 -0.267,0.639 -0.156,0.811 0.659,0.948 1.389,1.851 2.146,2.838 2.204,-1.69 4.309,-3.306 6.431,-4.929 2.846,-2.185 5.691,-4.36 8.543,-6.536 1.023,-0.769 2.189,-0.779 3.075,-0.055 1.268,1.033 1.21,2.821 -0.162,3.861 -4.741,3.646 -9.503,7.273 -14.243,10.912 -0.228,0.175 -0.457,0.343 -0.668,0.513 0.059,0.147 0.071,0.222 0.114,0.268 0.613,0.814 1.263,1.607 1.842,2.431 0.268,0.372 0.516,0.393 0.921,0.277 8.306,-2.495 16.43,-5.445 24.009,-9.724 2.795,-1.579 5.45,-3.354 7.79,-5.567 3.032,-2.884 5.158,-6.367 6.779,-10.192 0.163,-0.388 0.133,-0.659 -0.119,-0.98z"/>
   <path class="fil20" d="M258.908 406.924c-2.746,-3.588 -5.424,-7.089 -8.106,-10.599 0.009,-0.083 0.027,-0.17 0.039,-0.26 3.123,0.377 6.254,0.758 9.422,1.137 -0.06,3.402 -0.567,6.524 -1.355,9.722z"/>
   <path class="fil20" d="M218.155 408.155c-3.133,4.265 -6.269,8.538 -9.46,12.882 -3.569,-1.168 -7.262,-2.367 -11.055,-3.602 3.924,-4.17 8.072,-7.811 13.661,-9.342 2.412,-0.668 5.201,-0.61 6.854,0.062z"/>
   <path class="fil20" d="M233.895 446.688c-2.647,2.58 -5.725,4.505 -9.059,6.256 -0.202,-4.091 -0.404,-8.093 -0.604,-12.018 5.037,-1.957 9.958,-3.867 14.916,-5.799 0.19,1.369 -0.05,2.811 -0.484,4.223 -0.906,2.889 -2.635,5.241 -4.769,7.338z"/>
   <path class="fil1" d="M246.378 413.437c-1.836,1.388 -4.53,1.024 -5.962,-0.81 -1.479,-1.891 -1.075,-4.671 0.883,-6.123 1.833,-1.373 4.581,-0.976 5.962,0.866 1.444,1.917 1.045,4.609 -0.883,6.067zm3.914 -8.4c-2.748,-3.57 -7.877,-4.272 -11.401,-1.557 -3.59,2.767 -4.281,7.891 -1.542,11.459 2.722,3.574 7.849,4.242 11.472,1.511 3.526,-2.664 4.189,-7.865 1.471,-11.413z"/>
   <path class="fil3" d="M246.378 413.437c-1.837,1.388 -4.532,1.022 -5.965,-0.814 -1.472,-1.887 -1.074,-4.665 0.884,-6.118 1.837,-1.371 4.581,-0.976 5.962,0.863 1.442,1.919 1.05,4.614 -0.881,6.069z"/>
   <path class="fil0" d="M367.748 358.419c0,0 -17.402,-8.258 -33.744,-0.85 -15.65,7.094 -26.721,57.598 -6.446,70.392 7.787,4.915 14.029,4.068 19.337,3.223 3.223,-0.514 6.102,-1.028 8.775,-0.254 10.502,3.037 32.047,-48.966 12.078,-72.511z"/>
   <path class="fil15" d="M349.946 430.727l0 -0.002c0.726,-0.09 1.437,-0.156 2.133,-0.181 -0.694,0.025 -1.407,0.091 -2.133,0.183z"/>
   <path class="fil21" d="M340.345 431.834c-3.77,0 -7.983,-0.84 -12.785,-3.869 -0.771,-0.488 -1.495,-1.028 -2.177,-1.62 0.68,0.59 1.405,1.131 2.175,1.616 4.802,3.032 9.017,3.871 12.789,3.871 2.342,0 4.514,-0.324 6.548,-0.648 1.053,-0.168 2.068,-0.335 3.051,-0.459l0 0.002c-0.983,0.122 -1.997,0.29 -3.048,0.457 -2.035,0.326 -4.209,0.65 -6.553,0.65zm-14.975 -5.5c-0.001,0 -0.001,0 -0.001,-0.001 0,0.001 0,0.001 0.001,0.001z"/>
   <path class="fil2" d="M340.347 431.832c-3.772,0 -7.987,-0.839 -12.789,-3.871 -0.77,-0.485 -1.495,-1.025 -2.175,-1.616 -0.004,-0.004 -0.009,-0.007 -0.013,-0.011 -0.001,0 -0.001,0 -0.001,-0.001 -7.872,-6.841 -9.888,-20.359 -8.317,-33.686 1.152,8.453 4.415,15.696 10.508,19.541 6.022,3.796 11.079,4.916 15.512,4.916 4.776,0 8.832,-1.301 12.602,-1.953 8.984,-1.553 16.308,-11.368 19.927,-23.866 -1.973,20.231 -12.27,39.771 -19.017,39.771 -0.311,0 -0.615,-0.04 -0.91,-0.127 -0.985,-0.284 -1.997,-0.394 -3.044,-0.394 -0.182,0 -0.367,0.004 -0.551,0.009 -0.696,0.025 -1.407,0.091 -2.133,0.181 -0.983,0.124 -1.999,0.291 -3.051,0.459 -2.034,0.324 -4.206,0.648 -6.548,0.648z"/>
   <path class="fil1" d="M348.899 357.696c-4.899,0 -9.44,0.94 -13.565,2.809 -3.392,1.538 -6.993,6.199 -9.877,12.788 -2.969,6.782 -4.984,15.208 -5.528,23.116 -0.96,13.964 2.447,24.472 9.348,28.827 6.96,4.391 12.324,3.531 17.513,2.7 3.354,-0.537 6.522,-1.043 9.775,-0.102 0.374,0.065 3.056,-0.97 6.839,-7.523 8.823,-15.281 14.416,-44.141 2.348,-59.246 -1.369,-0.569 -4.889,-1.907 -9.496,-2.708 -2.531,-0.441 -4.987,-0.661 -7.357,-0.661zm-8.51 77.35c-4.222,0 -9.109,-0.923 -14.551,-4.358 -4.874,-3.076 -8.394,-8.053 -10.462,-14.792 -1.736,-5.656 -2.387,-12.548 -1.878,-19.93 0.603,-8.744 2.752,-17.714 6.052,-25.258 2.525,-5.764 6.848,-13.231 13.124,-16.075 17.502,-7.934 35.691,0.51 36.456,0.873l0.627 0.298 0.449 0.53c9.14,10.775 9.666,25.661 8.5,36.253 -1.316,11.933 -5.527,24.589 -10.993,33.033 -5.473,8.457 -10.056,9.24 -12.938,8.405 -1.87,-0.54 -4.232,-0.161 -6.966,0.277 -2.167,0.347 -4.651,0.745 -7.42,0.744z"/>
   <path class="fil22" d="M416.414 174.577c-6.206,-6.416 -10.443,-14.837 -11.575,-24.386 -2.744,-23.175 13.82,-44.187 36.996,-46.932 23.176,-2.745 44.188,13.818 46.932,36.994 2.745,23.176 -13.819,44.187 -36.993,46.933 -6.448,0.762 -12.725,0.028 -18.49,-1.922l-18.124 8.549 1.254 -19.236z"/>
   <path class="fil23" d="M408.243 138.311c1.114,-6.263 3.761,-12.193 7.809,-17.329 6.475,-8.214 15.76,-13.414 26.145,-14.645 1.558,-0.185 3.105,-0.273 4.635,-0.273 15.655,0 29.643,9.406 35.805,23.364 -7.7,-11.235 -20.614,-18.396 -34.827,-18.396 -1.658,0 -3.332,0.097 -5.02,0.298 -16.18,1.915 -29.135,12.737 -34.547,26.981z"/>
   <path class="fil1" d="M446.832 106.064c-1.53,0 -3.077,0.089 -4.635,0.273 -10.385,1.231 -19.671,6.431 -26.145,14.645 -6.475,8.214 -9.363,18.458 -8.134,28.846 1.018,8.578 4.725,16.392 10.725,22.593 0.607,0.629 0.921,1.484 0.864,2.356l-0.912 13.987 13.365 -6.305c0.727,-0.342 1.558,-0.39 2.318,-0.133 5.531,1.872 11.295,2.472 17.131,1.781 21.439,-2.54 36.818,-22.05 34.279,-43.491 -2.354,-19.882 -19.307,-34.552 -38.856,-34.552zm-31.672 90.85c-0.613,0 -1.223,-0.18 -1.746,-0.537 -0.907,-0.618 -1.421,-1.668 -1.348,-2.765l1.166 -17.897c-6.391,-7.013 -10.349,-15.682 -11.47,-25.159 -1.426,-12.031 1.92,-23.897 9.42,-33.411 7.5,-9.517 18.256,-15.54 30.287,-16.965 12.032,-1.425 23.897,1.921 33.411,9.42 9.517,7.5 15.54,18.256 16.966,30.288 1.425,12.032 -1.922,23.897 -9.422,33.411 -7.499,9.516 -18.255,15.54 -30.287,16.965 -6.334,0.75 -12.597,0.187 -18.638,-1.673l-17.018 8.027c-0.42,0.199 -0.872,0.296 -1.321,0.296z"/>
   <path class="fil24" d="M418.595 188.764l0.845 -12.941c6.088,2.621 12.685,4.001 19.375,4.001 7.339,0 14.789,-1.662 21.8,-5.169 13.011,-6.515 21.834,-18.054 25.311,-31.087 0.871,20.252 -14.065,38.117 -34.517,40.539 -1.566,0.183 -3.127,0.278 -4.679,0.278 -4.233,0 -8.404,-0.689 -12.452,-2.059 -0.322,-0.11 -0.659,-0.163 -0.994,-0.163 -0.453,0 -0.906,0.1 -1.324,0.296l-13.365 6.305z"/>
   <path class="fil1" d="M415.16 193.813l1.254 -19.236c-0.11,-0.114 -0.213,-0.231 -0.321,-0.346 1.097,0.574 2.213,1.106 3.347,1.593l-0.845 12.94 13.365 -6.305c0.419,-0.196 0.87,-0.296 1.324,-0.296 0.335,0 0.672,0.053 0.994,0.163 4.048,1.369 8.219,2.059 12.452,2.059 1.552,0 3.112,-0.094 4.679,-0.278 20.453,-2.422 35.388,-20.287 34.517,-40.539 0.846,-3.175 1.376,-6.44 1.571,-9.743 0.579,2.075 1.008,4.22 1.27,6.428 2.745,23.176 -13.819,44.187 -36.995,46.933 -1.683,0.198 -3.356,0.296 -5.011,0.296 -4.678,0 -9.218,-0.778 -13.477,-2.218l-18.124 8.549z"/>
   <path class="fil0" d="M433.44 133.354l0 0c3.657,-3.657 9.585,-3.001 13.242,0.656l0.57 0.57 0.569 -0.57c3.657,-3.658 9.585,-4.313 13.244,-0.656 3.657,3.658 3.656,9.587 0,13.243l-0.571 0.57 -11.496 11.498c-0.965,0.964 -2.527,0.964 -3.493,0l-11.496 -11.498 -0.569 -0.57c-3.657,-3.656 -3.657,-9.585 0,-13.243z"/>
  </g>
 </g>
</svg>
